<svg width="666" height="276" viewBox="0 0 666 276" fill="none" xmlns="http://www.w3.org/2000/svg">

<path d="M242.455 121.708C242.455 133.798 238.383 144.061 231.075 151.304C223.77 158.545 213.423 162.579 201.227 162.579C188.958 162.579 178.599 158.546 171.304 151.157C164.011 143.769 159.998 133.246 159.998 120.672C159.998 108.902 163.831 98.9139 170.638 91.854C177.45 84.788 187.068 80.8355 198.276 80.8354C207.369 80.8355 214.42 83.0758 219.272 86.2837C220.946 87.3903 222.395 88.6428 223.569 89.9819V45.3628H242.455V121.708ZM580.829 80.4292C593.026 80.4293 603.372 84.4617 610.678 91.7026C617.985 98.9462 622.058 109.21 622.058 121.3V160.693H603.172V152.959C601.997 154.298 600.551 155.554 598.881 156.665C594.032 159.891 586.981 162.171 577.879 162.171C566.67 162.171 557.051 158.22 550.238 151.133C543.432 144.053 539.601 134.028 539.601 122.187C539.601 109.684 543.616 99.1974 550.909 91.8296C558.203 84.4608 568.561 80.4293 580.829 80.4292ZM63.9727 161.1H45.0869V82.314H63.9727V161.1ZM113.052 80.8354C124.744 80.8354 134.686 84.765 141.712 91.8052C148.737 98.8454 152.658 108.809 152.658 120.525V161.1H133.625V119.342C133.625 113.048 131.476 107.981 127.876 104.486C124.269 100.984 119.011 98.8746 112.462 98.8745C106.164 98.8746 100.973 101.003 97.3691 104.534C93.7698 108.06 91.5938 113.138 91.5938 119.342V161.1H72.709V120.525C72.709 108.808 76.6303 98.8373 83.7588 91.7935C90.8851 84.752 101.012 80.8355 113.052 80.8354ZM496.749 80.4292C507.35 80.4292 516.361 83.6603 522.701 90.4604C529.021 97.2384 532.373 107.225 532.373 120.118V160.693H513.34V118.935C513.34 111.23 511.283 106.179 508.331 103.065C505.388 99.9601 501.256 98.4664 496.454 98.4663C490.056 98.4664 485.537 100.669 482.579 104.134C479.574 107.655 477.946 112.76 477.946 118.935V160.693H458.913V118.935C458.913 112.76 457.285 107.655 454.28 104.134C451.323 100.669 446.803 98.4663 440.404 98.4663C435.683 98.4664 431.546 99.9566 428.579 103.07C425.607 106.188 423.519 111.241 423.519 118.935V160.693H404.634V120.118C404.634 107.233 407.945 97.2443 414.247 90.4634C420.572 83.6582 429.586 80.4293 440.257 80.4292C454.23 80.4292 464.585 87.503 468.46 97.1577C472.366 87.5135 482.642 80.4293 496.749 80.4292ZM200.784 98.8745C193.712 98.8745 188.312 101.097 184.674 104.887C181.025 108.689 178.884 114.345 178.884 121.708C178.884 128.703 181.167 134.377 184.991 138.291C188.81 142.199 194.35 144.541 201.227 144.541C208.29 144.54 213.774 142.285 217.494 138.46C221.221 134.629 223.422 128.97 223.422 121.708C223.422 114.487 221.792 108.862 218.369 105.05C214.99 101.288 209.482 98.8746 200.784 98.8745ZM580.828 98.4673C573.952 98.4674 568.412 100.81 564.593 104.718C560.769 108.632 558.485 114.306 558.485 121.3C558.485 128.584 560.625 134.244 564.28 138.069C567.923 141.88 573.325 144.133 580.387 144.133C589.074 144.133 594.584 141.689 597.968 137.906C601.396 134.072 603.024 128.441 603.024 121.3C603.024 114.038 600.824 108.379 597.097 104.547C593.377 100.723 587.892 98.4673 580.828 98.4673ZM54.4561 51.2749C57.5504 51.2749 60.3274 52.2568 62.3486 54.1821C64.3808 56.1181 65.4482 58.8186 65.4482 61.8462C65.4481 64.8736 64.3807 67.5734 62.3486 69.5093C60.3274 71.4346 57.5504 72.4174 54.4561 72.4175C51.4176 72.4175 48.6772 71.4232 46.6816 69.4985C44.6778 67.5656 43.6124 64.8724 43.6123 61.8462C43.6123 58.8198 44.6778 56.1259 46.6816 54.1929C48.6772 52.2682 51.4176 51.2749 54.4561 51.2749Z" fill="#1E3236"/>
<path fill-rule="evenodd" clip-rule="evenodd" d="M358.323 80.8184C368.935 80.8184 379.117 84.9981 386.678 92.4499L386.856 92.6267L386.954 92.7248L391.905 98.8448L358.173 132.498L347.111 121.39L369.711 98.7841C366.773 97.2815 363.562 96.3621 360.254 96.0896C355.879 95.7291 351.485 96.5119 347.502 98.3615C343.519 100.211 340.082 103.064 337.529 106.642C334.975 110.221 333.391 114.401 332.931 118.776C332.472 123.151 333.153 127.571 334.907 131.603C336.661 135.636 339.429 139.143 342.941 141.783C346.452 144.424 350.587 146.106 354.941 146.666C359.295 147.226 363.72 146.645 367.783 144.98L367.785 144.979L367.787 144.978C372.443 143.077 376.442 139.851 379.289 135.699C382.16 131.42 383.749 126.407 383.868 121.253L383.927 118.704L398.564 118.666L398.584 121.268C398.625 126.625 397.602 131.937 395.573 136.894L395.569 136.903L395.565 136.912C393.538 141.761 390.546 146.146 386.774 149.799C383.033 153.549 378.591 156.525 373.703 158.556C368.807 160.591 363.558 161.638 358.257 161.638C352.956 161.638 347.707 160.591 342.81 158.556C337.921 156.524 333.478 153.547 329.736 149.796C327.509 147.625 325.554 145.2 323.909 142.576C322.246 145.206 320.269 147.633 318.016 149.799C310.38 157.38 300.066 161.634 289.316 161.634C278.567 161.634 268.253 157.381 260.618 149.801C256.785 146.099 253.753 141.647 251.709 136.721C249.668 131.8 248.658 126.512 248.739 121.184C248.672 115.858 249.696 110.575 251.748 105.661C253.803 100.74 256.845 96.2955 260.685 92.602C268.333 85.0513 278.638 80.8184 289.375 80.8184C300.034 80.8184 310.269 84.9908 317.9 92.44L318.079 92.6166L318.179 92.7154L323.174 98.8442L289.228 132.468L278.104 121.389L300.844 98.7763C296.523 96.5872 291.653 95.6483 286.789 96.1022C280.848 96.6565 275.282 99.2539 271.035 103.453L271.034 103.453C268.66 105.8 266.775 108.596 265.486 111.679C264.198 114.761 263.533 118.069 263.529 121.411C263.526 124.752 264.184 128.062 265.465 131.147C266.747 134.232 268.627 137.032 270.996 139.384L271.011 139.399L271.027 139.415C273.37 141.821 276.178 143.722 279.281 145.003C282.383 146.283 285.713 146.915 289.067 146.86L289.082 146.86H289.097C295.862 146.828 302.351 144.17 307.201 139.444C312.068 134.608 314.593 128.625 316.464 121.8C317.808 116.897 318.086 114.272 319.339 110.301C319.77 108.732 320.299 107.189 320.925 105.681C322.965 100.763 325.988 96.316 329.806 92.6119C337.383 85.0588 347.635 80.8184 358.323 80.8184Z" fill="url(#paint0_linear_335_581)"/>
<path d="M626.454 203.238L612.804 235.335H605.628L610.62 224.259L601.767 203.238H609.216L614.247 216.849L619.239 203.238H626.454Z" fill="#1E3236" fill-opacity="0.8"/>
<path d="M600.706 213.768C600.706 214.392 600.666 215.042 600.589 215.718H585.495C585.599 217.07 586.028 218.11 586.782 218.838C587.562 219.54 588.512 219.891 589.63 219.891C591.294 219.891 592.451 219.189 593.101 217.785H600.198C599.834 219.215 599.171 220.502 598.209 221.646C597.273 222.79 596.091 223.687 594.661 224.337C593.231 224.987 591.632 225.312 589.864 225.312C587.732 225.312 585.833 224.857 584.169 223.947C582.505 223.037 581.205 221.737 580.269 220.047C579.333 218.357 578.865 216.381 578.865 214.119C578.865 211.857 579.32 209.881 580.23 208.191C581.166 206.501 582.466 205.201 584.13 204.291C585.794 203.381 587.706 202.926 589.864 202.926C591.97 202.926 593.841 203.368 595.479 204.252C597.117 205.136 598.392 206.397 599.302 208.035C600.238 209.673 600.706 211.584 600.706 213.768ZM593.88 212.013C593.88 210.869 593.491 209.959 592.711 209.283C591.931 208.607 590.956 208.269 589.786 208.269C588.668 208.269 587.718 208.594 586.938 209.244C586.184 209.894 585.716 210.817 585.534 212.013H593.88Z" fill="#1E3236" fill-opacity="0.8"/>
<path d="M565.567 218.76L570.286 203.238H577.384L569.662 225H561.433L553.711 203.238H560.848L565.567 218.76Z" fill="#1E3236" fill-opacity="0.8"/>
<path d="M545.766 206.865C546.546 205.669 547.521 204.733 548.691 204.057C549.861 203.355 551.161 203.004 552.591 203.004V210.063H550.758C549.094 210.063 547.846 210.427 547.014 211.155C546.182 211.857 545.766 213.105 545.766 214.899V225H539.097V203.238H545.766V206.865Z" fill="#1E3236" fill-opacity="0.8"/>
<path d="M534.306 203.238V225H527.637V222.036C526.961 222.998 526.038 223.778 524.868 224.376C523.724 224.948 522.45 225.234 521.046 225.234C519.382 225.234 517.913 224.87 516.639 224.142C515.365 223.388 514.377 222.309 513.675 220.905C512.973 219.501 512.622 217.85 512.622 215.952V203.238H519.252V215.055C519.252 216.511 519.629 217.642 520.383 218.448C521.137 219.254 522.151 219.657 523.425 219.657C524.725 219.657 525.752 219.254 526.506 218.448C527.26 217.642 527.637 216.511 527.637 215.055V203.238H534.306Z" fill="#1E3236" fill-opacity="0.8"/>
<path d="M498.729 225.273C496.727 225.273 494.933 224.948 493.347 224.298C491.761 223.648 490.487 222.686 489.525 221.412C488.589 220.138 488.095 218.604 488.043 216.81H495.141C495.245 217.824 495.596 218.604 496.194 219.15C496.792 219.67 497.572 219.93 498.534 219.93C499.522 219.93 500.302 219.709 500.874 219.267C501.446 218.799 501.732 218.162 501.732 217.356C501.732 216.68 501.498 216.121 501.03 215.679C500.588 215.237 500.029 214.873 499.353 214.587C498.703 214.301 497.767 213.976 496.545 213.612C494.777 213.066 493.334 212.52 492.216 211.974C491.098 211.428 490.136 210.622 489.33 209.556C488.524 208.49 488.121 207.099 488.121 205.383C488.121 202.835 489.044 200.846 490.89 199.416C492.736 197.96 495.141 197.232 498.105 197.232C501.121 197.232 503.552 197.96 505.398 199.416C507.244 200.846 508.232 202.848 508.362 205.422H501.147C501.095 204.538 500.77 203.849 500.172 203.355C499.574 202.835 498.807 202.575 497.871 202.575C497.065 202.575 496.415 202.796 495.921 203.238C495.427 203.654 495.18 204.265 495.18 205.071C495.18 205.955 495.596 206.644 496.428 207.138C497.26 207.632 498.56 208.165 500.328 208.737C502.096 209.335 503.526 209.907 504.618 210.453C505.736 210.999 506.698 211.792 507.504 212.832C508.31 213.872 508.713 215.211 508.713 216.849C508.713 218.409 508.31 219.826 507.504 221.1C506.724 222.374 505.58 223.388 504.072 224.142C502.564 224.896 500.783 225.273 498.729 225.273Z" fill="#1E3236" fill-opacity="0.8"/>
<path d="M477.04 213.768C477.04 214.392 477.001 215.042 476.923 215.718H461.83C461.934 217.07 462.363 218.11 463.117 218.838C463.897 219.54 464.846 219.891 465.964 219.891C467.628 219.891 468.785 219.189 469.435 217.785H476.533C476.169 219.215 475.506 220.502 474.544 221.646C473.608 222.79 472.425 223.687 470.995 224.337C469.565 224.987 467.966 225.312 466.198 225.312C464.066 225.312 462.168 224.857 460.504 223.947C458.84 223.037 457.54 221.737 456.604 220.047C455.668 218.357 455.2 216.381 455.2 214.119C455.2 211.857 455.655 209.881 456.565 208.191C457.501 206.501 458.801 205.201 460.465 204.291C462.129 203.381 464.04 202.926 466.198 202.926C468.304 202.926 470.176 203.368 471.814 204.252C473.452 205.136 474.726 206.397 475.636 208.035C476.572 209.673 477.04 211.584 477.04 213.768ZM470.215 212.013C470.215 210.869 469.825 209.959 469.045 209.283C468.265 208.607 467.29 208.269 466.12 208.269C465.002 208.269 464.053 208.594 463.273 209.244C462.519 209.894 462.051 210.817 461.869 212.013H470.215Z" fill="#1E3236" fill-opacity="0.8"/>
<path d="M438.325 202.926C439.859 202.926 441.198 203.238 442.342 203.862C443.512 204.486 444.409 205.305 445.033 206.319V203.238H451.702V224.961C451.702 226.963 451.299 228.77 450.493 230.382C449.713 232.02 448.504 233.32 446.866 234.282C445.254 235.244 443.239 235.725 440.821 235.725C437.597 235.725 434.984 234.958 432.982 233.424C430.98 231.916 429.836 229.862 429.55 227.262H436.141C436.349 228.094 436.843 228.744 437.623 229.212C438.403 229.706 439.365 229.953 440.509 229.953C441.887 229.953 442.979 229.55 443.785 228.744C444.617 227.964 445.033 226.703 445.033 224.961V221.88C444.383 222.894 443.486 223.726 442.342 224.376C441.198 225 439.859 225.312 438.325 225.312C436.531 225.312 434.906 224.857 433.45 223.947C431.994 223.011 430.837 221.698 429.979 220.008C429.147 218.292 428.731 216.316 428.731 214.08C428.731 211.844 429.147 209.881 429.979 208.191C430.837 206.501 431.994 205.201 433.45 204.291C434.906 203.381 436.531 202.926 438.325 202.926ZM445.033 214.119C445.033 212.455 444.565 211.142 443.629 210.18C442.719 209.218 441.601 208.737 440.275 208.737C438.949 208.737 437.818 209.218 436.882 210.18C435.972 211.116 435.517 212.416 435.517 214.08C435.517 215.744 435.972 217.07 436.882 218.058C437.818 219.02 438.949 219.501 440.275 219.501C441.601 219.501 442.719 219.02 443.629 218.058C444.565 217.096 445.033 215.783 445.033 214.119Z" fill="#1E3236" fill-opacity="0.8"/>
<path d="M402.261 214.08C402.261 211.844 402.677 209.881 403.509 208.191C404.367 206.501 405.524 205.201 406.98 204.291C408.436 203.381 410.061 202.926 411.855 202.926C413.389 202.926 414.728 203.238 415.872 203.862C417.042 204.486 417.939 205.305 418.563 206.319V203.238H425.232V225H418.563V221.919C417.913 222.933 417.003 223.752 415.833 224.376C414.689 225 413.35 225.312 411.816 225.312C410.048 225.312 408.436 224.857 406.98 223.947C405.524 223.011 404.367 221.698 403.509 220.008C402.677 218.292 402.261 216.316 402.261 214.08ZM418.563 214.119C418.563 212.455 418.095 211.142 417.159 210.18C416.249 209.218 415.131 208.737 413.805 208.737C412.479 208.737 411.348 209.218 410.412 210.18C409.502 211.116 409.047 212.416 409.047 214.08C409.047 215.744 409.502 217.07 410.412 218.058C411.348 219.02 412.479 219.501 413.805 219.501C415.131 219.501 416.249 219.02 417.159 218.058C418.095 217.096 418.563 215.783 418.563 214.119Z" fill="#1E3236" fill-opacity="0.8"/>
<path d="M392.778 225L386.148 215.874V225H379.479V196.14H386.148V212.091L392.739 203.238H400.968L391.92 214.158L401.046 225H392.778Z" fill="#1E3236" fill-opacity="0.8"/>
<path d="M354.539 214.119C354.539 211.857 354.994 209.881 355.904 208.191C356.84 206.501 358.127 205.201 359.765 204.291C361.429 203.381 363.327 202.926 365.459 202.926C368.189 202.926 370.464 203.641 372.284 205.071C374.13 206.501 375.339 208.516 375.911 211.116H368.813C368.215 209.452 367.058 208.62 365.342 208.62C364.12 208.62 363.145 209.101 362.417 210.063C361.689 210.999 361.325 212.351 361.325 214.119C361.325 215.887 361.689 217.252 362.417 218.214C363.145 219.15 364.12 219.618 365.342 219.618C367.058 219.618 368.215 218.786 368.813 217.122H375.911C375.339 219.67 374.13 221.672 372.284 223.128C370.438 224.584 368.163 225.312 365.459 225.312C363.327 225.312 361.429 224.857 359.765 223.947C358.127 223.037 356.84 221.737 355.904 220.047C354.994 218.357 354.539 216.381 354.539 214.119Z" fill="#1E3236" fill-opacity="0.8"/>
<path d="M328.07 214.08C328.07 211.844 328.486 209.881 329.318 208.191C330.176 206.501 331.333 205.201 332.789 204.291C334.245 203.381 335.87 202.926 337.664 202.926C339.198 202.926 340.537 203.238 341.681 203.862C342.851 204.486 343.748 205.305 344.372 206.319V203.238H351.041V225H344.372V221.919C343.722 222.933 342.812 223.752 341.642 224.376C340.498 225 339.159 225.312 337.625 225.312C335.857 225.312 334.245 224.857 332.789 223.947C331.333 223.011 330.176 221.698 329.318 220.008C328.486 218.292 328.07 216.316 328.07 214.08ZM344.372 214.119C344.372 212.455 343.904 211.142 342.968 210.18C342.058 209.218 340.94 208.737 339.614 208.737C338.288 208.737 337.157 209.218 336.221 210.18C335.311 211.116 334.856 212.416 334.856 214.08C334.856 215.744 335.311 217.07 336.221 218.058C337.157 219.02 338.288 219.501 339.614 219.501C340.94 219.501 342.058 219.02 342.968 218.058C343.904 217.096 344.372 215.783 344.372 214.119Z" fill="#1E3236" fill-opacity="0.8"/>
<path d="M325.924 206.436C325.924 208.022 325.56 209.478 324.832 210.804C324.104 212.104 322.986 213.157 321.478 213.963C319.97 214.769 318.098 215.172 315.862 215.172H311.728V225H305.059V197.622H315.862C318.046 197.622 319.892 197.999 321.4 198.753C322.908 199.507 324.039 200.547 324.793 201.873C325.547 203.199 325.924 204.72 325.924 206.436ZM315.355 209.868C316.629 209.868 317.578 209.569 318.202 208.971C318.826 208.373 319.138 207.528 319.138 206.436C319.138 205.344 318.826 204.499 318.202 203.901C317.578 203.303 316.629 203.004 315.355 203.004H311.728V209.868H315.355Z" fill="#1E3236" fill-opacity="0.8"/>
<path d="M283.775 203.004C286.323 203.004 288.351 203.836 289.859 205.5C291.393 207.138 292.16 209.4 292.16 212.286V225H285.53V213.183C285.53 211.727 285.153 210.596 284.399 209.79C283.645 208.984 282.631 208.581 281.357 208.581C280.083 208.581 279.069 208.984 278.315 209.79C277.561 210.596 277.184 211.727 277.184 213.183V225H270.515V203.238H277.184V206.124C277.86 205.162 278.77 204.408 279.914 203.862C281.058 203.29 282.345 203.004 283.775 203.004Z" fill="#1E3236" fill-opacity="0.8"/>
<path d="M252.313 202.926C253.847 202.926 255.186 203.238 256.33 203.862C257.5 204.486 258.397 205.305 259.021 206.319V203.238H265.69V224.961C265.69 226.963 265.287 228.77 264.481 230.382C263.701 232.02 262.492 233.32 260.854 234.282C259.242 235.244 257.227 235.725 254.809 235.725C251.585 235.725 248.972 234.958 246.97 233.424C244.968 231.916 243.824 229.862 243.538 227.262H250.129C250.337 228.094 250.831 228.744 251.611 229.212C252.391 229.706 253.353 229.953 254.497 229.953C255.875 229.953 256.967 229.55 257.773 228.744C258.605 227.964 259.021 226.703 259.021 224.961V221.88C258.371 222.894 257.474 223.726 256.33 224.376C255.186 225 253.847 225.312 252.313 225.312C250.519 225.312 248.894 224.857 247.438 223.947C245.982 223.011 244.825 221.698 243.967 220.008C243.135 218.292 242.719 216.316 242.719 214.08C242.719 211.844 243.135 209.881 243.967 208.191C244.825 206.501 245.982 205.201 247.438 204.291C248.894 203.381 250.519 202.926 252.313 202.926ZM259.021 214.119C259.021 212.455 258.553 211.142 257.617 210.18C256.707 209.218 255.589 208.737 254.263 208.737C252.937 208.737 251.806 209.218 250.87 210.18C249.96 211.116 249.505 212.416 249.505 214.08C249.505 215.744 249.96 217.07 250.87 218.058C251.806 219.02 252.937 219.501 254.263 219.501C255.589 219.501 256.707 219.02 257.617 218.058C258.553 217.096 259.021 215.783 259.021 214.119Z" fill="#1E3236" fill-opacity="0.8"/>
<path d="M235.897 200.976C234.727 200.976 233.765 200.638 233.011 199.962C232.283 199.26 231.919 198.402 231.919 197.388C231.919 196.348 232.283 195.49 233.011 194.814C233.765 194.112 234.727 193.761 235.897 193.761C237.041 193.761 237.977 194.112 238.705 194.814C239.459 195.49 239.836 196.348 239.836 197.388C239.836 198.402 239.459 199.26 238.705 199.962C237.977 200.638 237.041 200.976 235.897 200.976ZM239.212 203.238V225H232.543V203.238H239.212Z" fill="#1E3236" fill-opacity="0.8"/>
<path d="M219.649 225.312C217.751 225.312 216.061 224.987 214.579 224.337C213.097 223.687 211.927 222.803 211.069 221.685C210.211 220.541 209.73 219.267 209.626 217.863H216.217C216.295 218.617 216.646 219.228 217.27 219.696C217.894 220.164 218.661 220.398 219.571 220.398C220.403 220.398 221.04 220.242 221.482 219.93C221.95 219.592 222.184 219.163 222.184 218.643C222.184 218.019 221.859 217.564 221.209 217.278C220.559 216.966 219.506 216.628 218.05 216.264C216.49 215.9 215.19 215.523 214.15 215.133C213.11 214.717 212.213 214.08 211.459 213.222C210.705 212.338 210.328 211.155 210.328 209.673C210.328 208.425 210.666 207.294 211.342 206.28C212.044 205.24 213.058 204.421 214.384 203.823C215.736 203.225 217.335 202.926 219.181 202.926C221.911 202.926 224.056 203.602 225.616 204.954C227.202 206.306 228.112 208.1 228.346 210.336H222.184C222.08 209.582 221.742 208.984 221.17 208.542C220.624 208.1 219.896 207.879 218.986 207.879C218.206 207.879 217.608 208.035 217.192 208.347C216.776 208.633 216.568 209.036 216.568 209.556C216.568 210.18 216.893 210.648 217.543 210.96C218.219 211.272 219.259 211.584 220.663 211.896C222.275 212.312 223.588 212.728 224.602 213.144C225.616 213.534 226.5 214.184 227.254 215.094C228.034 215.978 228.437 217.174 228.463 218.682C228.463 219.956 228.099 221.1 227.371 222.114C226.669 223.102 225.642 223.882 224.29 224.454C222.964 225.026 221.417 225.312 219.649 225.312Z" fill="#1E3236" fill-opacity="0.8"/>
<path d="M207.278 213.768C207.278 214.392 207.239 215.042 207.161 215.718H192.068C192.172 217.07 192.601 218.11 193.355 218.838C194.135 219.54 195.084 219.891 196.202 219.891C197.866 219.891 199.023 219.189 199.673 217.785H206.771C206.407 219.215 205.744 220.502 204.782 221.646C203.846 222.79 202.663 223.687 201.233 224.337C199.803 224.987 198.204 225.312 196.436 225.312C194.304 225.312 192.406 224.857 190.742 223.947C189.078 223.037 187.778 221.737 186.842 220.047C185.906 218.357 185.438 216.381 185.438 214.119C185.438 211.857 185.893 209.881 186.803 208.191C187.739 206.501 189.039 205.201 190.703 204.291C192.367 203.381 194.278 202.926 196.436 202.926C198.542 202.926 200.414 203.368 202.052 204.252C203.69 205.136 204.964 206.397 205.874 208.035C206.81 209.673 207.278 211.584 207.278 213.768ZM200.453 212.013C200.453 210.869 200.063 209.959 199.283 209.283C198.503 208.607 197.528 208.269 196.358 208.269C195.24 208.269 194.291 208.594 193.511 209.244C192.757 209.894 192.289 210.817 192.107 212.013H200.453Z" fill="#1E3236" fill-opacity="0.8"/>
<path d="M168.685 197.622C171.571 197.622 174.093 198.194 176.251 199.338C178.409 200.482 180.073 202.094 181.243 204.174C182.439 206.228 183.037 208.607 183.037 211.311C183.037 213.989 182.439 216.368 181.243 218.448C180.073 220.528 178.396 222.14 176.212 223.284C174.054 224.428 171.545 225 168.685 225H158.428V197.622H168.685ZM168.256 219.228C170.778 219.228 172.741 218.539 174.145 217.161C175.549 215.783 176.251 213.833 176.251 211.311C176.251 208.789 175.549 206.826 174.145 205.422C172.741 204.018 170.778 203.316 168.256 203.316H165.097V219.228H168.256Z" fill="#1E3236" fill-opacity="0.8"/>
<path d="M137.269 225.312C135.371 225.312 133.681 224.987 132.199 224.337C130.717 223.687 129.547 222.803 128.689 221.685C127.831 220.541 127.35 219.267 127.246 217.863H133.837C133.915 218.617 134.266 219.228 134.89 219.696C135.514 220.164 136.281 220.398 137.191 220.398C138.023 220.398 138.66 220.242 139.102 219.93C139.57 219.592 139.804 219.163 139.804 218.643C139.804 218.019 139.479 217.564 138.829 217.278C138.179 216.966 137.126 216.628 135.67 216.264C134.11 215.9 132.81 215.523 131.77 215.133C130.73 214.717 129.833 214.08 129.079 213.222C128.325 212.338 127.948 211.155 127.948 209.673C127.948 208.425 128.286 207.294 128.962 206.28C129.664 205.24 130.678 204.421 132.004 203.823C133.356 203.225 134.955 202.926 136.801 202.926C139.531 202.926 141.676 203.602 143.236 204.954C144.822 206.306 145.732 208.1 145.966 210.336H139.804C139.7 209.582 139.362 208.984 138.79 208.542C138.244 208.1 137.516 207.879 136.606 207.879C135.826 207.879 135.228 208.035 134.812 208.347C134.396 208.633 134.188 209.036 134.188 209.556C134.188 210.18 134.513 210.648 135.163 210.96C135.839 211.272 136.879 211.584 138.283 211.896C139.895 212.312 141.208 212.728 142.222 213.144C143.236 213.534 144.12 214.184 144.874 215.094C145.654 215.978 146.057 217.174 146.083 218.682C146.083 219.956 145.719 221.1 144.991 222.114C144.289 223.102 143.262 223.882 141.91 224.454C140.584 225.026 139.037 225.312 137.269 225.312Z" fill="#1E3236" fill-opacity="0.8"/>
<path d="M124.898 213.768C124.898 214.392 124.859 215.042 124.781 215.718H109.688C109.792 217.07 110.221 218.11 110.975 218.838C111.755 219.54 112.704 219.891 113.822 219.891C115.486 219.891 116.643 219.189 117.293 217.785H124.391C124.027 219.215 123.364 220.502 122.402 221.646C121.466 222.79 120.283 223.687 118.853 224.337C117.423 224.987 115.824 225.312 114.056 225.312C111.924 225.312 110.026 224.857 108.362 223.947C106.698 223.037 105.398 221.737 104.462 220.047C103.526 218.357 103.058 216.381 103.058 214.119C103.058 211.857 103.513 209.881 104.423 208.191C105.359 206.501 106.659 205.201 108.323 204.291C109.987 203.381 111.898 202.926 114.056 202.926C116.162 202.926 118.034 203.368 119.672 204.252C121.31 205.136 122.584 206.397 123.494 208.035C124.43 209.673 124.898 211.584 124.898 213.768ZM118.073 212.013C118.073 210.869 117.683 209.959 116.903 209.283C116.123 208.607 115.148 208.269 113.978 208.269C112.86 208.269 111.911 208.594 111.131 209.244C110.377 209.894 109.909 210.817 109.727 212.013H118.073Z" fill="#1E3236" fill-opacity="0.8"/>
<path d="M99.5508 196.14V225H92.8818V196.14H99.5508Z" fill="#1E3236" fill-opacity="0.8"/>
<path d="M65.0862 214.08C65.0862 211.844 65.5022 209.881 66.3342 208.191C67.1922 206.501 68.3492 205.201 69.8052 204.291C71.2612 203.381 72.8862 202.926 74.6802 202.926C76.2142 202.926 77.5532 203.238 78.6972 203.862C79.8672 204.486 80.7642 205.305 81.3882 206.319V203.238H88.0572V225H81.3882V221.919C80.7382 222.933 79.8282 223.752 78.6582 224.376C77.5142 225 76.1752 225.312 74.6412 225.312C72.8732 225.312 71.2612 224.857 69.8052 223.947C68.3492 223.011 67.1922 221.698 66.3342 220.008C65.5022 218.292 65.0862 216.316 65.0862 214.08ZM81.3882 214.119C81.3882 212.455 80.9202 211.142 79.9842 210.18C79.0742 209.218 77.9562 208.737 76.6302 208.737C75.3042 208.737 74.1732 209.218 73.2372 210.18C72.3272 211.116 71.8722 212.416 71.8722 214.08C71.8722 215.744 72.3272 217.07 73.2372 218.058C74.1732 219.02 75.3042 219.501 76.6302 219.501C77.9562 219.501 79.0742 219.02 79.9842 218.058C80.9202 217.096 81.3882 215.783 81.3882 214.119Z" fill="#1E3236" fill-opacity="0.8"/>
<path d="M52.3239 225.273C50.3219 225.273 48.5279 224.948 46.9419 224.298C45.3559 223.648 44.0819 222.686 43.1199 221.412C42.1839 220.138 41.6899 218.604 41.6379 216.81H48.7359C48.8399 217.824 49.1909 218.604 49.7889 219.15C50.3869 219.67 51.1669 219.93 52.1289 219.93C53.1169 219.93 53.8969 219.709 54.4689 219.267C55.0409 218.799 55.3269 218.162 55.3269 217.356C55.3269 216.68 55.0929 216.121 54.6249 215.679C54.1829 215.237 53.6239 214.873 52.9479 214.587C52.2979 214.301 51.3619 213.976 50.1399 213.612C48.3719 213.066 46.9289 212.52 45.8109 211.974C44.6929 211.428 43.7309 210.622 42.9249 209.556C42.1189 208.49 41.7159 207.099 41.7159 205.383C41.7159 202.835 42.6389 200.846 44.4849 199.416C46.3309 197.96 48.7359 197.232 51.6999 197.232C54.7159 197.232 57.1469 197.96 58.9929 199.416C60.8389 200.846 61.8269 202.848 61.9569 205.422H54.7419C54.6899 204.538 54.3649 203.849 53.7669 203.355C53.1689 202.835 52.4019 202.575 51.4659 202.575C50.6599 202.575 50.0099 202.796 49.5159 203.238C49.0219 203.654 48.7749 204.265 48.7749 205.071C48.7749 205.955 49.1909 206.644 50.0229 207.138C50.8549 207.632 52.1549 208.165 53.9229 208.737C55.6909 209.335 57.1209 209.907 58.2129 210.453C59.3309 210.999 60.2929 211.792 61.0989 212.832C61.9049 213.872 62.3079 215.211 62.3079 216.849C62.3079 218.409 61.9049 219.826 61.0989 221.1C60.3189 222.374 59.1749 223.388 57.6669 224.142C56.1589 224.896 54.3779 225.273 52.3239 225.273Z" fill="#1E3236" fill-opacity="0.8"/>
<defs>
<linearGradient id="paint0_linear_335_581" x1="268.634" y1="78.2527" x2="390.017" y2="162.05" gradientUnits="userSpaceOnUse">
<stop stop-color="#55D867"/>
<stop offset="1" stop-color="#0C7587"/>
</linearGradient>
</defs>
</svg>
